<svg xmlns="http://www.w3.org/2000/svg" width="19" height="20"><path fill="#feb960" d="M1.016 17.207a1.2 1.2 0 01-.371-.879v-15a1.2 1.2 0 01.37-.879 1.2 1.2 0 01.88-.37h12.5c.338 0 .63.123.878.37.248.248.372.541.372.88v1.25h1.25c.338 0 .63.123.878.37a1.2 1.2 0 01.372.88v15c0 .337-.124.63-.372.878a1.2 1.2 0 01-.878.371h-12.5c-.34 0-.632-.124-.88-.371a1.2 1.2 0 01-.37-.879v-1.25h-1.25a1.2 1.2 0 01-.88-.371zM14.395 1.328h-12.5v15h12.5zm1.25 2.5v12.5c0 .34-.124.632-.372.879-.247.248-.54.371-.878.371h-10v1.25h12.5v-15zm-3.125 0a.61.61 0 01.449.176.608.608 0 01.176.449.609.609 0 01-.176.45.61.61 0 01-.45.175H6.27a.608.608 0 01-.449-.176.609.609 0 01-.175-.449c0-.182.058-.332.175-.449a.607.607 0 01.45-.176zm-9.2 4.824a.607.607 0 01-.175-.449.61.61 0 01.175-.45.608.608 0 01.45-.175h8.75a.61.61 0 01.449.176.61.61 0 01.176.45.607.607 0 01-.176.448.608.608 0 01-.45.176H3.77a.607.607 0 01-.449-.176zm0 2.5a.609.609 0 01-.175-.449c0-.182.058-.332.175-.449a.607.607 0 01.45-.176h8.75a.61.61 0 01.449.176.608.608 0 01.176.449.609.609 0 01-.176.45.61.61 0 01-.45.175H3.77a.608.608 0 01-.449-.176zm0 2.5a.608.608 0 01-.175-.449.61.61 0 01.175-.45.608.608 0 01.45-.175h8.75a.61.61 0 01.449.176.61.61 0 01.176.45.608.608 0 01-.176.448.608.608 0 01-.45.176H3.77a.607.607 0 01-.449-.176z"/></svg>