<svg xmlns="http://www.w3.org/2000/svg" width="15" height="20"><path fill="#feb960" d="M-.105 2.578c0-.703.24-1.295.722-1.777S1.691.078 2.395.078c.703 0 1.295.241 1.777.723.481.482.722 1.074.722 1.777v11.25l-2.5 6.25L.09 14.297l-.195-.469zm1.25 1.25h2.5v-1.25c0-.338-.124-.631-.372-.879a1.203 1.203 0 00-.878-.37 1.2 1.2 0 00-.88.37 1.2 1.2 0 00-.37.88zm1.874 11.29l.274-.626v-.078l-.898-.43-.899.43v.078l.274.625.625 1.602zm.626-10.04h-2.5v8.125l1.25-.625 1.25.625zm10 0v6.25c.338 0 .63.124.878.371.248.248.372.541.372.88v3.75a1.2 1.2 0 01-.372.878c-.247.248-.54.371-.878.371 0 .703-.242 1.295-.723 1.777-.482.482-1.074.723-1.777.723-.704 0-1.296-.24-1.778-.723-.482-.482-.723-1.074-.723-1.777v-12.5l.508-1.289L10.324.781h.04a.793.793 0 01.253-.508.755.755 0 01.528-.195c.416 0 .676.209.78.625l1.212 3.086zm-1.25 0h-2.5v12.5c0 .339.123.632.37.879a1.2 1.2 0 00.88.371 1.2 1.2 0 00.878-.371 1.2 1.2 0 00.371-.879zm-1.25-2.89l-.665 1.64h1.329z"/></svg>