<svg xmlns="http://www.w3.org/2000/svg" viewBox="0 0 135.81 22.48"><path d="M12.68.57l2.85 5.78a1 1 0 00.76.55l6.38.93a1 1 0 01.56 1.73L18.62 14a1 1 0 00-.29.9l1.09 6.35a1 1 0 01-1.47 1.07l-5.7-3a1 1 0 00-.94 0l-5.7 3a1 1 0 01-1.49-1.02l1.09-6.35a1 1 0 00-.29-.9L.31 9.55a1 1 0 01.56-1.73l6.37-.92A1 1 0 008 6.34L10.86.57a1 1 0 011.82 0zm28.07 0l2.85 5.77a1 1 0 00.76.55l6.38.93a1 1 0 01.56 1.73L46.68 14a1 1 0 00-.29.9l1.09 6.35A1 1 0 0146 22.37l-5.7-3a1 1 0 00-.94 0l-5.7 3a1 1 0 01-1.47-1.07l1.09-6.35A1 1 0 0033 14l-4.61-4.5a1 1 0 01.56-1.73l6.38-.93a1 1 0 00.76-.55L38.93.57a1 1 0 011.82 0zm28.06 0l2.85 5.78a1 1 0 00.76.55l6.38.93a1 1 0 01.56 1.73L74.75 14a1 1 0 00-.29.9l1.09 6.35a1 1 0 01-1.47 1.07l-5.7-3a1 1 0 00-.94 0l-5.7 3a1 1 0 01-1.47-1.07l1.09-6.35a1 1 0 00-.29-.9l-4.61-4.5A1 1 0 0157 7.82l6.38-.93a1 1 0 00.76-.55L67 .57a1 1 0 011.81 0zm28.07 0l2.85 5.78a1 1 0 00.76.55l6.38.93a1 1 0 01.56 1.73L102.82 14a1 1 0 00-.29.9l1.09 6.35a1 1 0 01-1.47 1.07l-5.7-3a1 1 0 00-.94 0l-5.7 3a1 1 0 01-1.47-1.07l1.09-6.35a1 1 0 00-.29-.9l-4.61-4.5a1 1 0 01.56-1.73l6.38-.93a1 1 0 00.76-.55L95.07.57a1 1 0 011.81 0zm28.12 0l2.85 5.78a1 1 0 00.76.55l6.38.93a1 1 0 01.56 1.73L130.89 14a1 1 0 00-.29.9l1.09 6.35a1 1 0 01-1.47 1.07l-5.7-3a1 1 0 00-.94 0l-5.7 3a1 1 0 01-1.47-1.07l1.09-6.35a1 1 0 00-.29-.9l-4.61-4.5a1 1 0 01.56-1.73l6.38-.93a1 1 0 00.76-.55l2.83-5.72a1 1 0 011.87 0z" fill="#cbc1ab"/></svg>