<svg xmlns="http://www.w3.org/2000/svg" width="21" height="20"><path fill="#feb960" d="M6.84 8.79l2.265-2.267 6.407 6.446 1.133 3.36-3.36-1.134zM3.87 5.82a1.543 1.543 0 01-.469-1.133c0-.442.157-.82.47-1.132a1.539 1.539 0 011.132-.469c.442 0 .82.156 1.133.469l1.64 1.68L5.551 7.46zM20.023.45c.248.247.371.54.371.878v17.5c0 .338-.123.631-.37.879a1.205 1.205 0 01-.88.371h-17.5a1.2 1.2 0 01-.878-.371 1.2 1.2 0 01-.371-.879v-17.5A1.2 1.2 0 01.765.45a1.2 1.2 0 01.88-.37h17.5c.338 0 .63.123.878.37zm-.878.878h-17.5v17.5h17.5z"/></svg>