<svg aria-hidden="true" style="position:absolute;width:0;height:0" xmlns="http://www.w3.org/2000/svg" overflow="hidden"><defs><symbol id="facebook-f" viewBox="0 0 20 32"><path d="M17.446 18l.889-5.791h-5.557V8.451c0-1.584.776-3.129 3.265-3.129h2.526V.391S16.276 0 14.085 0C9.509 0 6.518 2.774 6.518 7.795v4.414H1.431V18h5.087v14h6.261V18z"/></symbol><symbol id="twitter" viewBox="0 0 32 32"><path d="M28.711 9.482c.02.284.02.569.02.853 0 8.67-6.599 18.66-18.66 18.66A18.53 18.53 0 010 26.051c.528.061 1.036.081 1.584.081 3.066 0 5.888-1.035 8.142-2.802a6.57 6.57 0 01-6.132-4.548c.406.061.812.102 1.239.102.589 0 1.178-.081 1.726-.223A6.56 6.56 0 011.3 12.224v-.081a6.6 6.6 0 002.964.832A6.556 6.556 0 011.34 7.513c0-1.218.325-2.335.893-3.31a18.639 18.639 0 0013.523 6.863 7.437 7.437 0 01-.162-1.502 6.555 6.555 0 016.558-6.558c1.888 0 3.594.792 4.792 2.071a12.88 12.88 0 004.162-1.584 6.539 6.539 0 01-2.883 3.614A13.168 13.168 0 0032 6.092a14.103 14.103 0 01-3.289 3.391z"/></symbol><symbol id="pinterest-p" viewBox="0 0 24 32"><path d="M12.75.406C6.338.406 0 4.681 0 11.6c0 4.4 2.475 6.9 3.975 6.9.619 0 .975-1.725.975-2.212 0-.581-1.481-1.819-1.481-4.238 0-5.025 3.825-8.588 8.775-8.588 4.256 0 7.406 2.419 7.406 6.862 0 3.319-1.331 9.544-5.644 9.544-1.556 0-2.887-1.125-2.887-2.738 0-2.363 1.65-4.65 1.65-7.088 0-4.138-5.869-3.388-5.869 1.613 0 1.05.131 2.213.6 3.169-.862 3.712-2.625 9.244-2.625 13.069 0 1.181.169 2.344.281 3.525.213.238.106.212.431.094 3.15-4.313 3.037-5.156 4.463-10.8.769 1.462 2.756 2.25 4.331 2.25 6.637 0 9.619-6.469 9.619-12.3C24 4.456 18.637.406 12.75.406z"/></symbol><symbol id="instagram" viewBox="0 0 28 32"><path d="M14.006 8.813c-3.975 0-7.181 3.206-7.181 7.181s3.206 7.181 7.181 7.181 7.181-3.206 7.181-7.181-3.206-7.181-7.181-7.181zm0 11.85c-2.569 0-4.669-2.094-4.669-4.669s2.094-4.669 4.669-4.669 4.669 2.094 4.669 4.669-2.1 4.669-4.669 4.669zm9.15-12.144c0 .931-.75 1.675-1.675 1.675a1.675 1.675 0 111.675-1.675zm4.757 1.7c-.106-2.244-.619-4.231-2.262-5.869-1.637-1.638-3.625-2.15-5.869-2.263-2.313-.131-9.244-.131-11.556 0-2.237.106-4.225.619-5.869 2.256S.207 7.968.094 10.212c-.131 2.313-.131 9.244 0 11.556.106 2.244.619 4.231 2.263 5.869s3.625 2.15 5.869 2.262c2.313.131 9.244.131 11.556 0 2.244-.106 4.231-.619 5.869-2.262 1.637-1.637 2.15-3.625 2.262-5.869.131-2.313.131-9.238 0-11.55zM24.925 24.25a4.728 4.728 0 01-2.663 2.663c-1.844.731-6.219.563-8.256.563s-6.419.163-8.256-.563a4.728 4.728 0 01-2.663-2.663c-.731-1.844-.563-6.219-.563-8.256s-.163-6.419.563-8.256A4.72 4.72 0 015.75 5.076c1.844-.731 6.219-.563 8.256-.563s6.419-.162 8.256.563a4.727 4.727 0 012.663 2.662c.731 1.844.563 6.219.563 8.256s.169 6.419-.563 8.256z"/></symbol><symbol id="dribbble" viewBox="0 0 32 32"><path d="M16 .5C7.453.5.5 7.453.5 16S7.453 31.5 16 31.5 31.5 24.547 31.5 16 24.547.5 16 .5zm10.248 7.148a13.175 13.175 0 012.99 8.247c-.436-.092-4.814-.98-9.219-.426-.36-.878-.699-1.65-1.164-2.601 4.895-1.999 7.114-4.843 7.393-5.22zm-1.472-1.531c-.238.339-2.231 3.018-6.939 4.782a70.439 70.439 0 00-4.94-7.75 13.205 13.205 0 0111.879 2.968zM10.371 4.039a84.522 84.522 0 014.909 7.657c-6.193 1.645-11.648 1.621-12.24 1.613.859-4.108 3.627-7.523 7.331-9.27zM2.761 16.02c0-.135.003-.27.007-.405.579.012 6.995.095 13.607-1.884.379.742.741 1.495 1.073 2.247-4.787 1.348-9.137 5.22-11.283 8.894a13.185 13.185 0 01-3.404-8.852zm5.113 10.445c1.383-2.827 5.136-6.476 10.474-8.297 1.859 4.83 2.627 8.878 2.824 10.04a13.212 13.212 0 01-13.298-1.743zm15.523.53c-.136-.805-.84-4.681-2.572-9.44 4.149-.664 7.794.423 8.247.566a13.265 13.265 0 01-5.675 8.874z"/></symbol></defs></svg>